<svg width="66" height="66" viewBox="0 0 66 66" fill="none" xmlns="http://www.w3.org/2000/svg">
<path d="M41.1106 33.3125C40.2488 33.3125 39.5102 33.0094 38.8947 32.4034C38.2791 31.7973 37.9761 31.0587 37.9856 30.1875C37.9761 29.3352 38.2791 28.606 38.8947 28C39.5102 27.3939 40.2488 27.0909 41.1106 27.0909C41.9439 27.0909 42.6683 27.3939 43.2839 28C43.9089 28.606 44.2261 29.3352 44.2356 30.1875C44.2261 30.7651 44.0746 31.2907 43.781 31.7642C43.4969 32.2377 43.1181 32.6165 42.6447 32.9005C42.1806 33.1752 41.6693 33.3125 41.1106 33.3125Z" fill="#EADCFF"/>
<path d="M29.509 33.3125C28.6473 33.3125 27.9086 33.0094 27.2931 32.4034C26.6776 31.7973 26.3745 31.0587 26.384 30.1875C26.3745 29.3352 26.6776 28.606 27.2931 28C27.9086 27.3939 28.6473 27.0909 29.509 27.0909C30.3423 27.0909 31.0668 27.3939 31.6823 28C32.3073 28.606 32.6245 29.3352 32.634 30.1875C32.6245 30.7651 32.473 31.2907 32.1795 31.7642C31.8954 32.2377 31.5166 32.6165 31.0431 32.9005C30.5791 33.1752 30.0677 33.3125 29.509 33.3125Z" fill="#EADCFF"/>
<path d="M17.9074 33.3125C17.0457 33.3125 16.3071 33.0094 15.6915 32.4034C15.076 31.7973 14.773 31.0587 14.7824 30.1875C14.773 29.3352 15.076 28.606 15.6915 28C16.3071 27.3939 17.0457 27.0909 17.9074 27.0909C18.7408 27.0909 19.4652 27.3939 20.0807 28C20.7057 28.606 21.023 29.3352 21.0324 30.1875C21.023 30.7651 20.8715 31.2907 20.5779 31.7642C20.2938 32.2377 19.915 32.6165 19.4415 32.9005C18.9775 33.1752 18.4662 33.3125 17.9074 33.3125Z" fill="#EADCFF"/>
<path fill-rule="evenodd" clip-rule="evenodd" d="M28.7 6.14758C22.7194 6.14758 16.9837 8.52338 12.7547 12.7523C8.5258 16.9813 6.15 22.717 6.15 28.6976C6.15 34.6782 8.5258 40.4139 12.7547 44.6428C16.9837 48.8718 22.7194 51.2476 28.7 51.2476C34.6806 51.2476 40.4163 48.8718 44.6453 44.6428C48.8742 40.4139 51.25 34.6782 51.25 28.6976C51.25 22.717 48.8742 16.9813 44.6453 12.7523C40.4163 8.52338 34.6806 6.14758 28.7 6.14758ZM6.62537e-08 28.6976C0.000387191 24.1083 1.10131 19.5861 3.21042 15.5102C5.31953 11.4343 8.37532 7.92361 12.1215 5.27263C15.8676 2.62165 20.1948 0.907675 24.7402 0.274487C29.2856 -0.358701 33.9165 0.10736 38.2445 1.63357C42.5726 3.15979 46.4715 5.70165 49.6143 9.04594C52.7571 12.3902 55.052 16.4394 56.3067 20.8538C57.5613 25.2683 57.739 29.9192 56.8249 34.4165C55.9108 38.9138 53.9316 43.1263 51.0532 46.7007L64.698 60.3496C65.0001 60.6311 65.2424 60.9706 65.4105 61.3478C65.5786 61.725 65.6689 62.1322 65.6762 62.545C65.6835 62.9579 65.6076 63.368 65.4529 63.7509C65.2982 64.1338 65.068 64.4816 64.776 64.7736C64.484 65.0656 64.1362 65.2958 63.7533 65.4505C63.3704 65.6051 62.9603 65.6811 62.5475 65.6738C62.1346 65.6665 61.7274 65.5761 61.3502 65.4081C60.973 65.24 60.6335 64.9977 60.352 64.6956L46.7031 51.0508C42.4864 54.4471 37.395 56.5815 32.0169 57.2072C26.6388 57.833 21.1934 56.9246 16.3096 54.5871C11.4258 52.2496 7.30279 48.5783 4.41682 43.9972C1.53086 39.416 -0.000367762 34.112 6.62537e-08 28.6976Z" fill="#EADCFF"/>
</svg>
