<svg width="105" height="164" viewBox="0 0 105 164" fill="none" xmlns="http://www.w3.org/2000/svg">
<path d="M37.3438 40.1058C36.4821 40.1058 35.7435 39.8027 35.1279 39.1967C34.5124 38.5906 34.2094 37.852 34.2188 36.9808C34.2094 36.1285 34.5124 35.3993 35.1279 34.7933C35.7435 34.1872 36.4821 33.8842 37.3438 33.8842C38.1772 33.8842 38.9016 34.1872 39.5171 34.7933C40.1421 35.3993 40.4594 36.1285 40.4688 36.9808C40.4594 37.5584 40.3079 38.084 40.0143 38.5575C39.7302 39.031 39.3514 39.4098 38.8779 39.6938C38.4139 39.9685 37.9026 40.1058 37.3438 40.1058ZM48.9454 40.1058C48.0837 40.1058 47.345 39.8027 46.7295 39.1967C46.114 38.5906 45.8109 37.852 45.8204 36.9808C45.8109 36.1285 46.114 35.3993 46.7295 34.7933C47.345 34.1872 48.0837 33.8842 48.9454 33.8842C49.7787 33.8842 50.5032 34.1872 51.1187 34.7933C51.7437 35.3993 52.0609 36.1285 52.0704 36.9808C52.0609 37.5584 51.9094 38.084 51.6159 38.5575C51.3318 39.031 50.953 39.4098 50.4795 39.6938C50.0155 39.9685 49.5041 40.1058 48.9454 40.1058ZM60.547 40.1058C59.6852 40.1058 58.9466 39.8027 58.3311 39.1967C57.7155 38.5906 57.4125 37.852 57.422 36.9808C57.4125 36.1285 57.7155 35.3993 58.3311 34.7933C58.9466 34.1872 59.6852 33.8842 60.547 33.8842C61.3803 33.8842 62.1047 34.1872 62.7203 34.7933C63.3453 35.3993 63.6625 36.1285 63.672 36.9808C63.6625 37.5584 63.511 38.084 63.2174 38.5575C62.9333 39.031 62.5545 39.4098 62.0811 39.6938C61.617 39.9685 61.1057 40.1058 60.547 40.1058Z" fill="currentColor"/>
<path fill-rule="evenodd" clip-rule="evenodd" d="M48.1365 12.9409C42.1559 12.9409 36.4202 15.3167 32.1913 19.5456C27.9623 23.7745 25.5865 29.5102 25.5865 35.4909C25.5865 41.4715 27.9623 47.2072 32.1913 51.4361C36.4202 55.6651 42.1559 58.0409 48.1365 58.0409C54.1172 58.0409 59.8528 55.6651 64.0818 51.4361C68.3107 47.2072 70.6865 41.4715 70.6865 35.4909C70.6865 29.5102 68.3107 23.7745 64.0818 19.5456C59.8528 15.3167 54.1172 12.9409 48.1365 12.9409ZM19.4365 35.4909C19.4369 30.9016 20.5378 26.3794 22.6469 22.3035C24.7561 18.2276 27.8118 14.7169 31.558 12.0659C35.3041 9.41492 39.6314 7.70095 44.1767 7.06776C48.7221 6.43457 53.353 6.90063 57.6811 8.42685C62.0091 9.95306 65.908 12.4949 69.0508 15.8392C72.1936 19.1835 74.4885 23.2327 75.7432 27.6471C76.9978 32.0615 77.1755 36.7125 76.2615 41.2098C75.3474 45.7071 73.3681 49.9196 70.4897 53.494L84.1345 67.1429C84.4366 67.4244 84.679 67.7639 84.847 68.1411C85.0151 68.5182 85.1055 68.9254 85.1127 69.3383C85.12 69.7512 85.0441 70.1613 84.8894 70.5442C84.7348 70.9271 84.5046 71.2749 84.2126 71.5669C83.9206 71.8589 83.5728 72.0891 83.1899 72.2438C82.807 72.3984 82.3969 72.4744 81.984 72.4671C81.5711 72.4598 81.1639 72.3694 80.7867 72.2014C80.4095 72.0333 80.07 71.791 79.7885 71.4889L66.1396 57.8441C61.923 61.2404 56.8316 63.3747 51.4534 64.0005C46.0753 64.6263 40.6299 63.7179 35.7461 61.3804C30.8623 59.0429 26.7393 55.3716 23.8533 50.7904C20.9674 46.2093 19.4362 40.9052 19.4365 35.4909Z" fill="currentColor"/>
<path d="M78.7906 62.7967C76.6709 62.7596 74.5884 63.0236 72.6175 63.4661C72.0362 63.596 71.4957 63.8663 71.0431 64.2534C70.5905 64.6405 70.2398 65.1327 70.0214 65.6868C69.8031 66.2409 69.7239 66.84 69.7907 67.4318C69.8575 68.0236 70.0684 68.59 70.4048 69.0814C70.4147 69.0914 70.4209 69.105 70.4234 69.1223C71.2787 70.4239 72.8406 71.0561 74.3653 70.7214C75.704 70.3867 77.1171 70.238 78.5303 70.238C89.0915 70.238 97.6446 79.0886 97.0868 89.7614C96.8536 94.2176 95.0255 98.4413 91.9364 101.661L92.0851 101.944C89.828 99.018 86.929 96.6493 83.6118 95.0207C80.2946 93.392 76.6476 92.5469 72.9521 92.5505C69.3078 92.5505 65.6634 93.3686 62.3909 94.9677L44.6525 103.595C43.1278 104.339 41.38 103.223 41.38 101.55V96.6039C41.38 91.9555 39.6321 87.7161 36.7687 84.4808L21.7078 67.7092C20.7781 66.668 19.0303 67.3002 19.0303 68.7133V78.7911C12.0762 80.3902 6.60965 87.4186 5.19652 94.6702C5.01059 95.5998 4.19246 96.2692 3.26277 96.2692C2.51321 96.2692 1.79434 96.567 1.26431 97.097C0.734288 97.627 0.436523 98.3459 0.436523 99.0955V99.9136C0.436523 108.169 7.13027 114.863 15.3859 114.863V120.776C15.385 124.849 16.8999 128.777 19.6358 131.795C22.3717 134.812 26.1327 136.704 30.1865 137.101V161.831C30.1865 162.575 30.8187 163.207 31.5996 163.207H39.9668C40.7478 163.207 41.38 162.575 41.38 161.794V139.931L46.5862 161.794C46.8093 162.612 47.5531 163.207 48.4084 163.207H56.3293C57.2218 163.207 57.8912 162.351 57.6681 161.533L51.878 137.175H66.8051L61.015 161.533C60.7918 162.351 61.4612 163.207 62.3537 163.207H70.2747C71.13 163.207 71.8737 162.612 72.0968 161.794L76.4478 143.535L79.9806 147.067C80.7615 147.848 80.9846 149.001 80.5384 150.005L75.704 161.273C75.2578 162.165 75.9271 163.207 76.9312 163.207H85.0381C85.5959 163.207 86.1165 162.872 86.3025 162.351L95.6737 140.448C96.6406 138.291 97.124 135.948 97.124 133.605V116.722C97.124 113.807 96.6071 111.014 95.6626 108.426C98.5052 105.942 100.773 102.869 102.31 99.4205C103.847 95.9722 104.615 92.2309 104.562 88.4561C104.376 74.3992 92.8475 62.9455 78.7906 62.7967ZM14.6161 95.3246C14.6161 93.9896 15.6946 92.9558 16.985 92.9558C18.32 92.9558 19.3538 94.0342 19.3538 95.3246V98.8575C19.3509 99.4848 19.1004 100.086 18.6567 100.529C18.2131 100.973 17.6123 101.223 16.985 101.226C16.6736 101.227 16.3651 101.167 16.0773 101.048C15.7894 100.929 15.5279 100.755 15.3077 100.535C15.0876 100.315 14.9131 100.053 14.7944 99.7651C14.6757 99.4773 14.6151 99.1688 14.6161 98.8575V95.3246Z" fill="currentColor"/>
</svg>
