<svg width="130" height="134" viewBox="0 0 130 134" fill="none" xmlns="http://www.w3.org/2000/svg">
<path d="M107.984 33.0223C106.138 40.418 99.4856 45.6042 91.8648 45.6042C84.244 45.6042 77.5918 40.418 75.7459 33.0223L74.1377 26.6492C73.3702 23.5265 70.1903 21.6274 67.0469 22.4126C63.9036 23.1978 62.0212 26.357 62.807 29.4979L64.397 35.871C66.4073 43.9059 71.7437 50.4069 78.7065 54.0591V109.883C78.7065 113.116 81.3199 115.727 84.5546 115.727C87.7894 115.727 90.4027 113.116 90.4027 109.883V86.5091H93.3268V109.883C93.3268 113.116 95.9402 115.727 99.1749 115.727C102.41 115.727 105.023 113.116 105.023 109.883V54.0591C111.986 50.4069 117.322 43.9059 119.333 35.871L120.922 29.4979C121.708 26.3753 119.808 23.1978 116.664 22.4126C113.521 21.6274 110.359 23.5265 109.592 26.6492L108.002 33.0223H107.984ZM91.8648 39.7606C94.1913 39.7606 96.4225 38.8372 98.0676 37.1933C99.7127 35.5495 100.637 33.32 100.637 30.9953C100.637 28.6706 99.7127 26.4411 98.0676 24.7973C96.4225 23.1535 94.1913 22.23 91.8648 22.23C89.5382 22.23 87.307 23.1535 85.6619 24.7973C84.0168 26.4411 83.0926 28.6706 83.0926 30.9953C83.0926 33.32 84.0168 35.5495 85.6619 37.1933C87.307 38.8372 89.5382 39.7606 91.8648 39.7606ZM33.3838 39.7606C35.7103 39.7606 37.9415 38.8372 39.5866 37.1933C41.2317 35.5495 42.1559 33.32 42.1559 30.9953C42.1559 28.6706 41.2317 26.4411 39.5866 24.7973C37.9415 23.1535 35.7103 22.23 33.3838 22.23C31.0573 22.23 28.8261 23.1535 27.181 24.7973C25.5359 26.4411 24.6117 28.6706 24.6117 30.9953C24.6117 33.32 25.5359 35.5495 27.181 37.1933C28.8261 38.8372 31.0573 39.7606 33.3838 39.7606ZM31.9218 45.6042C25.4706 45.6042 20.2256 50.8451 20.2256 57.2913V109.883C20.2256 113.116 22.839 115.727 26.0737 115.727C29.3084 115.727 31.9218 113.116 31.9218 109.883V86.5091H34.8458V109.883C34.8458 113.116 37.4592 115.727 40.6939 115.727C43.9286 115.727 46.542 113.116 46.542 109.883V68.3758L48.9178 72.1193C49.996 73.7994 51.8601 74.8402 53.8521 74.8402H62.6243C65.859 74.8402 68.4724 72.2289 68.4724 68.9967C68.4724 65.7645 65.859 63.1531 62.6243 63.1531H57.0686L50.2336 52.3973C47.5654 48.1608 42.9052 45.6042 37.8978 45.6042H31.9218Z" fill="white"/>
<circle cx="93.1261" cy="97.0929" r="33.672" fill="#462C71"/>
<path fill-rule="evenodd" clip-rule="evenodd" d="M92.9606 74.7082C87.0685 74.7082 81.4178 77.0488 77.2514 81.2151C73.0851 85.3815 70.7445 91.0322 70.7445 96.9243C70.7445 102.816 73.0851 108.467 77.2514 112.633C81.4178 116.8 87.0685 119.14 92.9606 119.14C98.8527 119.14 104.503 116.8 108.67 112.633C112.836 108.467 115.177 102.816 115.177 96.9243C115.177 91.0322 112.836 85.3815 108.67 81.2151C104.503 77.0488 98.8527 74.7082 92.9606 74.7082ZM64.6855 96.9243C64.6859 92.403 65.7706 87.9477 67.8484 83.9321C69.9263 79.9166 72.9369 76.4579 76.6275 73.8462C80.3182 71.2344 84.5814 69.5458 89.0594 68.922C93.5375 68.2982 98.0999 68.7574 102.364 70.261C106.628 71.7646 110.469 74.2688 113.565 77.5636C116.661 80.8584 118.922 84.8476 120.158 89.1967C121.395 93.5457 121.57 98.1278 120.669 102.559C119.769 106.989 117.819 111.139 114.983 114.661L128.426 128.108C128.723 128.385 128.962 128.719 129.128 129.091C129.293 129.463 129.382 129.864 129.389 130.271C129.396 130.677 129.322 131.081 129.169 131.459C129.017 131.836 128.79 132.179 128.502 132.466C128.215 132.754 127.872 132.981 127.495 133.133C127.118 133.285 126.714 133.36 126.307 133.353C125.9 133.346 125.499 133.257 125.127 133.091C124.756 132.926 124.421 132.687 124.144 132.389L110.697 118.947C106.543 122.293 101.527 124.395 96.2284 125.012C90.9299 125.628 85.5651 124.733 80.7536 122.43C75.9421 120.128 71.8802 116.511 69.037 111.997C66.1937 107.484 64.6852 102.259 64.6855 96.9243Z" fill="white"/>
<path d="M100.841 95.084L100.574 96.0476L100.841 95.084ZM101.307 95.5516L100.333 95.7779L101.307 95.5516ZM95.1301 88.5295L95.4753 87.591L95.1301 88.5295ZM95.5342 89.053L94.5452 89.201L95.5342 89.053ZM103.934 84.448C103.934 83.8957 103.487 83.448 102.934 83.448C102.382 83.448 101.934 83.8957 101.934 84.448H103.934ZM101.934 91.757C101.934 92.3093 102.382 92.757 102.934 92.757C103.487 92.757 103.934 92.3093 103.934 91.757H101.934ZM99.3294 87.1187C98.7771 87.1187 98.3294 87.5664 98.3294 88.1187C98.3294 88.671 98.7771 89.1187 99.3294 89.1187V87.1187ZM106.477 89.1187C107.029 89.1187 107.477 88.671 107.477 88.1187C107.477 87.5664 107.029 87.1187 106.477 87.1187V89.1187ZM89.3547 99.2612C89.0666 98.7901 88.451 98.6417 87.9799 98.9299C87.5087 99.218 87.3604 99.8336 87.6485 100.305L89.3547 99.2612ZM96.3924 100.305C96.6806 99.8336 96.5323 99.218 96.0611 98.9299C95.59 98.6417 94.9744 98.7901 94.6863 99.2612L96.3924 100.305ZM88.9298 94.3502V93.3502C88.3776 93.3502 87.9298 93.798 87.9298 94.3502H88.9298ZM89.0309 94.3502H90.0309C90.0309 93.798 89.5832 93.3502 89.0309 93.3502V94.3502ZM95.0201 94.3502V93.3502C94.4678 93.3502 94.0201 93.798 94.0201 94.3502H95.0201ZM95.11 94.3502H96.11C96.11 93.798 95.6622 93.3502 95.11 93.3502V94.3502ZM89.0309 94.4325V95.4325C89.5832 95.4325 90.0309 94.9848 90.0309 94.4325H89.0309ZM88.9298 94.4325H87.9298C87.9298 94.9848 88.3776 95.4325 88.9298 95.4325V94.4325ZM95.11 94.4325V95.4325C95.6622 95.4325 96.11 94.9848 96.11 94.4325H95.11ZM95.0201 94.4325H94.0201C94.0201 94.9848 94.4678 95.4325 95.0201 95.4325V94.4325ZM95.1301 88.5295L95.4753 87.591C94.3222 87.1668 93.078 86.9358 91.7826 86.9358V87.9358V88.9358C92.8387 88.9358 93.8493 89.1239 94.7849 89.468L95.1301 88.5295ZM100.841 95.084L101.108 94.1204C98.7279 93.4599 96.9002 91.4247 96.5232 88.905L95.5342 89.053L94.5452 89.201C95.039 92.5011 97.4316 95.1758 100.574 96.0476L100.841 95.084ZM101.566 97.8188H102.566C102.566 96.962 102.468 96.127 102.281 95.3252L101.307 95.5516L100.333 95.7779C100.485 96.4322 100.566 97.1154 100.566 97.8188H101.566ZM91.7826 107.702V108.702C97.7476 108.702 102.566 103.82 102.566 97.8188H101.566H100.566C100.566 102.734 96.624 106.702 91.7826 106.702V107.702ZM81.999 97.8188H80.999C80.999 103.82 85.8175 108.702 91.7826 108.702V107.702V106.702C86.9411 106.702 82.999 102.734 82.999 97.8188H81.999ZM91.7826 87.9358V86.9358C85.8175 86.9358 80.999 91.8179 80.999 97.8188H81.999H82.999C82.999 92.9033 86.9411 88.9358 91.7826 88.9358V87.9358ZM100.841 95.084L100.574 96.0476C100.494 96.0256 100.373 95.9473 100.333 95.7779L101.307 95.5516L102.281 95.3252C102.134 94.6923 101.642 94.2684 101.108 94.1204L100.841 95.084ZM95.1301 88.5295L94.7849 89.468C94.6118 89.4044 94.5554 89.2696 94.5452 89.201L95.5342 89.053L96.5232 88.905C96.4424 88.3657 96.0905 87.8173 95.4753 87.591L95.1301 88.5295ZM102.934 84.448H101.934V91.757H102.934H103.934V84.448H102.934ZM99.3294 88.1187V89.1187H106.477V88.1187V87.1187H99.3294V88.1187ZM92.0205 101.796V100.796C90.9162 100.796 89.9276 100.198 89.3547 99.2612L88.5016 99.783L87.6485 100.305C88.5558 101.788 90.166 102.796 92.0205 102.796V101.796ZM95.5393 99.783L94.6863 99.2612C94.1134 100.198 93.1248 100.796 92.0205 100.796V101.796V102.796C93.8749 102.796 95.4851 101.788 96.3924 100.305L95.5393 99.783ZM88.9298 94.3502V95.3502H89.0309V94.3502V93.3502H88.9298V94.3502ZM95.0201 94.3502V95.3502H95.11V94.3502V93.3502H95.0201V94.3502ZM89.0309 94.3502H88.0309V94.4325H89.0309H90.0309V94.3502H89.0309ZM89.0309 94.4325V93.4325H88.9298V94.4325V95.4325H89.0309V94.4325ZM88.9298 94.4325H89.9298V94.3502H88.9298H87.9298V94.4325H88.9298ZM95.11 94.3502H94.11V94.4325H95.11H96.11V94.3502H95.11ZM95.11 94.4325V93.4325H95.0201V94.4325V95.4325H95.11V94.4325ZM95.0201 94.4325H96.0201V94.3502H95.0201H94.0201V94.4325H95.0201Z" fill="white"/>
</svg>
