<svg width="147" height="120" viewBox="0 0 147 120" fill="none" xmlns="http://www.w3.org/2000/svg">
<rect width="147" height="120" fill="#D5D5D5"/>
<g id="Frame 634">
<rect width="1512" height="1057.41" transform="translate(-722 -182)" fill="white"/>
<g id="Frame 522">
<g id="Frame 633">
<g id="Frame 632">
<g id="Frame 631">
<g id="Frame 630">
<g id="Frame 629">
<g id="Frame 628">
<g id="Frame 163">
<g id="Group 6">
<path id="Vector" d="M99.6421 21.3907L91.9763 22.727L93.6801 16.7146C92.5583 15.0684 91.9729 13.2301 91.9763 11.3635C91.9763 5.08744 98.4628 -7.62939e-06 106.465 -7.62939e-06C114.467 -7.62939e-06 120.953 5.08744 120.953 11.3635C120.953 17.6396 114.467 22.727 106.465 22.727C104.085 22.7297 101.741 22.2706 99.6421 21.3907Z" fill="#4C1E95"/>
<path id="Vector_2" d="M20.1395 49.0306L27.2041 49.9995L25.6339 45.6405C26.6678 44.447 27.2072 43.1142 27.2041 41.7609C27.2041 37.2108 21.2264 33.5224 13.852 33.5224C6.47763 33.5224 0.49988 37.2108 0.49988 41.7609C0.49988 46.3111 6.47763 49.9995 13.852 49.9995C16.0453 50.0014 18.2052 49.6685 20.1395 49.0306Z" fill="#4C1E95"/>
<path id="Vector_3" d="M82.2817 24.6041C82.2817 22.5993 81.4773 20.6767 80.0455 19.2592C78.6137 17.8417 76.6717 17.0453 74.6468 17.0453C72.6219 17.0453 70.68 17.8417 69.2481 19.2592C67.8163 20.6767 67.012 22.5993 67.012 24.6041C67.012 26.6088 67.8163 28.5314 69.2481 29.9489C70.68 31.3665 72.6219 32.1628 74.6468 32.1628C76.6717 32.1628 78.6137 31.3665 80.0455 29.9489C81.4773 28.5314 82.2817 26.6088 82.2817 24.6041ZM41.0534 50.3039C43.0783 50.3039 45.0202 49.5075 46.4521 48.09C47.8839 46.6724 48.6883 44.7498 48.6883 42.7451C48.6883 40.7404 47.8839 38.8178 46.4521 37.4003C45.0202 35.9827 43.0783 35.1863 41.0534 35.1863C39.0285 35.1863 37.0865 35.9827 35.6547 37.4003C34.2229 38.8178 33.4185 40.7404 33.4185 42.7451C33.4185 44.7498 34.2229 46.6724 35.6547 48.09C37.0865 49.5075 39.0285 50.3039 41.0534 50.3039ZM19.6758 89.6095C16.2973 89.6095 13.5679 92.3118 13.5679 95.6565C13.5679 99.0013 16.2973 101.704 19.6758 101.704H129.618C132.996 101.704 135.726 99.0013 135.726 95.6565C135.726 92.3118 132.996 89.6095 129.618 89.6095H19.6758ZM108.24 50.3039C110.265 50.3039 112.207 49.5075 113.639 48.09C115.071 46.6724 115.875 44.7498 115.875 42.7451C115.875 40.7404 115.071 38.8178 113.639 37.4003C112.207 35.9827 110.265 35.1863 108.24 35.1863C106.215 35.1863 104.273 35.9827 102.842 37.4003C101.41 38.8178 100.605 40.7404 100.605 42.7451C100.605 44.7498 101.41 46.6724 102.842 48.09C104.273 49.5075 106.215 50.3039 108.24 50.3039ZM51.7422 70.2402L56.8767 79.6697C58.0792 81.8807 60.8468 82.6932 63.08 81.5216C65.3132 80.35 66.1339 77.5911 64.9505 75.3801L58.0219 62.6247C58.3464 62.3034 58.6327 61.9444 58.8426 61.5287L63.958 52.0991V62.3979C63.958 65.7427 66.6875 68.445 70.0659 68.445H79.2277C82.6062 68.445 85.3356 65.7427 85.3356 62.3979V52.0991L90.4701 61.5287C90.6991 61.9444 90.9663 62.3034 91.2908 62.6247L84.3622 75.3801C83.1597 77.5911 83.9995 80.3311 86.2327 81.5216C88.4659 82.7121 91.2336 81.8807 92.4361 79.6697L97.5514 70.2402V77.5155C97.5514 80.8602 100.281 83.5625 103.659 83.5625H112.821C116.2 83.5625 118.929 80.8602 118.929 77.5155V70.2402L124.064 79.6697C125.266 81.8807 128.034 82.6932 130.267 81.5216C132.5 80.35 133.321 77.5911 132.137 75.3801L124.903 62.0956C121.983 56.7099 116.295 53.3463 110.111 53.3463H106.389C103.278 53.3463 100.3 54.1967 97.7232 55.7273L91.3099 43.9545C88.3896 38.5689 82.7016 35.2052 76.5174 35.2052H72.7954C66.6111 35.2052 60.9422 38.5689 58.0028 43.9545L51.5895 55.7273C49.0127 54.1967 46.0351 53.3463 42.9239 53.3463H39.2019C33.0177 53.3463 27.3488 56.7099 24.4094 62.0956L17.1753 75.3612C15.9729 77.5722 16.8127 80.3122 19.0459 81.5027C21.2791 82.6932 24.0467 81.8618 25.2492 79.6508L30.3646 70.2402V77.5155C30.3646 80.8602 33.094 83.5625 36.4725 83.5625H45.6343C49.0127 83.5625 51.7422 80.8602 51.7422 77.5155V70.2402Z" fill="#4C1E95"/>
<g id="Group 4">
<circle id="Ellipse 1" cx="114.987" cy="88.3514" r="29.2611" fill="white"/>
<g id="Group 2">
<path id="Vector_4" fill-rule="evenodd" clip-rule="evenodd" d="M114.843 68.8989C109.723 68.8989 104.812 70.9329 101.192 74.5535C97.571 78.174 95.537 83.0846 95.537 88.2048C95.537 93.3251 97.571 98.2356 101.192 101.856C104.812 105.477 109.723 107.511 114.843 107.511C119.963 107.511 124.874 105.477 128.494 101.856C132.115 98.2356 134.149 93.3251 134.149 88.2048C134.149 83.0846 132.115 78.174 128.494 74.5535C124.874 70.9329 119.963 68.8989 114.843 68.8989ZM90.2717 88.2048C90.2721 84.2758 91.2146 80.4041 93.0203 76.9146C94.826 73.4251 97.4422 70.4194 100.649 68.1498C103.857 65.8802 107.561 64.4128 111.453 63.8707C115.344 63.3286 119.309 63.7277 123.014 65.0343C126.72 66.341 130.058 68.5171 132.748 71.3803C135.439 74.2435 137.404 77.7101 138.478 81.4895C139.552 85.2688 139.704 89.2507 138.922 93.101C138.139 96.9513 136.445 100.558 133.98 103.618L145.662 115.303C145.921 115.544 146.128 115.835 146.272 116.158C146.416 116.481 146.493 116.829 146.5 117.183C146.506 117.536 146.441 117.887 146.308 118.215C146.176 118.543 145.979 118.841 145.729 119.091C145.479 119.341 145.181 119.538 144.853 119.67C144.526 119.803 144.174 119.868 143.821 119.862C143.467 119.855 143.119 119.778 142.796 119.634C142.473 119.49 142.182 119.283 141.941 119.024L130.256 107.342C126.646 110.25 122.287 112.077 117.683 112.613C113.078 113.149 108.416 112.371 104.235 110.37C100.054 108.369 96.5239 105.225 94.0531 101.303C91.5824 97.3813 90.2714 92.8403 90.2717 88.2048Z" fill="#4C1E95"/>
</g>
</g>
</g>
</g>
</g>
</g>
</g>
</g>
</g>
</g>
</g>
</g>
</svg>
