<svg width="24" height="24" viewBox="0 0 24 24" fill="none" xmlns="http://www.w3.org/2000/svg">
<path fill-rule="evenodd" clip-rule="evenodd" d="M4.46967 4.46967C4.76256 4.17678 5.23744 4.17678 5.53033 4.46967L19.5303 18.4697C19.8232 18.7626 19.8232 19.2374 19.5303 19.5303C19.2374 19.8232 18.7626 19.8232 18.4697 19.5303L4.46967 5.53033C4.17678 5.23744 4.17678 4.76256 4.46967 4.46967Z" fill="#8C8C8C"/>
<path d="M3.80078 3.76355L20.1996 20.1624" stroke="#8C8C8C" stroke-width="1.5" stroke-linecap="round"/>
<circle cx="11.9995" cy="12" r="3.23684" stroke="#8C8C8C" stroke-width="1.5"/>
<path d="M12 5.81677C15.4803 5.81694 18.6465 8.34978 20.5947 10.3666C21.4932 11.2968 21.4931 12.7029 20.5947 13.6332C18.6465 15.65 15.4803 18.1828 12 18.183C8.51961 18.183 5.35356 15.65 3.40527 13.6332C2.50662 12.7029 2.50662 11.2969 3.40527 10.3666C5.35357 8.34975 8.51968 5.81677 12 5.81677Z" stroke="#8C8C8C" stroke-width="1.5"/>
</svg>
