<svg width="39" height="39" viewBox="0 0 39 39" fill="none" xmlns="http://www.w3.org/2000/svg">
<path fill-rule="evenodd" clip-rule="evenodd" d="M16.8992 3.57088C13.4253 3.57088 10.0936 4.95088 7.63722 7.4073C5.1808 9.86372 3.8008 13.1953 3.8008 16.6692C3.8008 20.1431 5.1808 23.4748 7.63722 25.9312C10.0936 28.3876 13.4253 29.7676 16.8992 29.7676C20.3731 29.7676 23.7047 28.3876 26.1611 25.9312C28.6175 23.4748 29.9975 20.1431 29.9975 16.6692C29.9975 13.1953 28.6175 9.86372 26.1611 7.4073C23.7047 4.95088 20.3731 3.57088 16.8992 3.57088ZM0.228516 16.6692C0.228741 14.0035 0.868221 11.3767 2.09332 9.00922C3.31841 6.64171 5.09339 4.6025 7.26937 3.06265C9.44535 1.52281 11.9589 0.527231 14.5991 0.159438C17.2393 -0.208354 19.9292 0.0623611 22.4432 0.948876C24.9572 1.83539 27.2219 3.31185 29.0474 5.25441C30.8729 7.19697 32.2059 9.54897 32.9347 12.1131C33.6635 14.6773 33.7667 17.3788 33.2358 19.9911C32.7048 22.6034 31.5551 25.0503 29.8832 27.1265L37.8089 35.0546C37.9844 35.2181 38.1251 35.4153 38.2228 35.6344C38.3204 35.8535 38.3729 36.09 38.3771 36.3298C38.3813 36.5696 38.3372 36.8079 38.2474 37.0303C38.1576 37.2527 38.0238 37.4547 37.8542 37.6243C37.6846 37.7939 37.4826 37.9276 37.2602 38.0175C37.0378 38.1073 36.7996 38.1514 36.5597 38.1472C36.3199 38.143 36.0834 38.0905 35.8643 37.9928C35.6452 37.8952 35.448 37.7545 35.2845 37.579L27.3564 29.6533C24.9071 31.6261 21.9497 32.8658 18.8258 33.2293C15.7019 33.5928 12.5389 33.0652 9.70208 31.7074C6.86527 30.3496 4.4704 28.2171 2.79406 25.5561C1.11773 22.8951 0.228302 19.8142 0.228516 16.6692Z" fill="#EADCFF"/>
<path d="M14.599 0.159336C17.2392 -0.208457 19.9295 0.0627631 22.4434 0.949278C24.9573 1.8358 27.2222 3.3117 29.0477 5.25414C30.8732 7.1967 32.2059 9.54931 32.9347 12.1135C33.6634 14.6775 33.7665 17.3789 33.2355 19.991C32.7046 22.6033 31.5553 25.0504 29.8834 27.1266L37.8089 35.0549C37.9842 35.2183 38.1249 35.4152 38.2225 35.6341C38.3201 35.8532 38.3726 36.0899 38.3769 36.3297C38.3811 36.5694 38.337 36.8077 38.2472 37.0301C38.1574 37.2525 38.0236 37.4545 37.854 37.6241C37.6844 37.7938 37.4824 37.9275 37.26 38.0174C37.0376 38.1072 36.7993 38.1512 36.5595 38.147C36.3198 38.1428 36.083 38.0903 35.864 37.9927C35.6451 37.8951 35.4482 37.7544 35.2847 37.579L27.3564 29.6536C24.9072 31.6263 21.9495 32.8656 18.8256 33.2291C15.7018 33.5925 12.5389 33.0654 9.70218 31.7077C6.86538 30.3499 4.47058 28.2169 2.79424 25.5559C1.11797 22.8949 0.228302 19.8141 0.228516 16.6692C0.22876 14.0036 0.86806 11.3768 2.09309 9.00936C3.31818 6.64185 5.09366 4.60245 7.26964 3.0626C9.44554 1.52287 11.9589 0.527123 14.599 0.159336ZM22.2031 1.62929C19.798 0.781183 17.2242 0.522011 14.6983 0.873878C12.1725 1.22578 9.76783 2.17857 7.6861 3.65171C5.60433 5.1249 3.9064 7.07624 2.73434 9.34127C1.56237 11.6062 0.950348 14.119 0.950104 16.6692C0.9499 19.6781 1.80071 22.626 3.40449 25.1718C5.00827 27.7176 7.29968 29.7576 10.0136 31.0566C12.7277 32.3555 15.7538 32.8602 18.7425 32.5124C21.7311 32.1647 24.5608 30.9786 26.904 29.0912L27.4086 28.6846L35.7949 37.0689L35.8034 37.078L35.8125 37.0872C35.91 37.1917 36.0273 37.2757 36.1578 37.3338C36.2883 37.392 36.4293 37.4236 36.5722 37.4261C36.7151 37.4287 36.8575 37.4022 36.9901 37.3486C37.1226 37.2951 37.2427 37.215 37.3438 37.114C37.4449 37.0129 37.5249 36.8927 37.5785 36.7602C37.632 36.6277 37.6585 36.4853 37.656 36.3423C37.6534 36.1995 37.6218 36.0585 37.5637 35.928C37.5055 35.7975 37.4216 35.6801 37.317 35.5827L37.3079 35.5735L37.2987 35.5651L28.9152 27.1787L29.3211 26.6742C30.9206 24.6878 32.0208 22.3465 32.5288 19.8473C33.0367 17.3482 32.9377 14.7638 32.2405 12.3108C31.5433 9.8576 30.2678 7.6073 28.5213 5.74883C26.7748 3.89038 24.6083 2.47743 22.2031 1.62929ZM16.899 2.84908C20.5643 2.84908 24.0797 4.30571 26.6715 6.89745C29.2631 9.48914 30.7191 13.0041 30.7192 16.6692C30.7192 20.3345 29.2632 23.8499 26.6715 26.4416C24.0797 29.0334 20.5643 30.4893 16.899 30.4893C13.2339 30.4893 9.71899 29.0332 7.1273 26.4416C4.53555 23.8499 3.07893 20.3345 3.07893 16.6692C3.07896 13.004 4.53558 9.48916 7.1273 6.89745C9.71901 4.30574 13.2338 2.84911 16.899 2.84908ZM16.899 3.57067C13.4252 3.5707 10.0939 4.95124 7.63748 7.40763C5.18109 9.86403 3.80055 13.1953 3.80052 16.6692C3.80052 20.1431 5.18106 23.475 7.63748 25.9315C10.0939 28.3877 13.4253 29.7677 16.899 29.7677C20.3729 29.7677 23.7049 28.3879 26.1613 25.9315C28.6177 23.475 29.9976 20.1431 29.9976 16.6692C29.9975 13.1954 28.6175 9.864 26.1613 7.40763C23.7049 4.95122 20.3729 3.57067 16.899 3.57067Z" fill="#EADCFF"/>
<path d="M21.2511 17.1966C21.2511 16.8621 21.2177 16.5361 21.1574 16.2206C19.4128 15.6588 18.0839 14.1696 17.7355 12.3308C17.2534 12.1757 16.7395 12.0912 16.2049 12.0912C13.4246 12.0912 11.1581 14.3701 11.158 17.1966C11.158 20.023 13.4246 22.3019 16.2049 22.3019C18.9851 22.3018 21.2511 20.023 21.2511 17.1966ZM17.8038 17.9781C18.0117 17.6381 18.456 17.5313 18.796 17.7392C19.136 17.9471 19.2428 18.3914 19.0349 18.7314L18.9257 18.8984C18.3537 19.717 17.4165 20.2626 16.3451 20.2626C15.2736 20.2626 14.3359 19.7171 13.7639 18.8984L13.6547 18.7314L13.6195 18.6665C13.461 18.3369 13.5749 17.9342 13.8936 17.7392C14.2335 17.5313 14.6778 17.6382 14.8858 17.9781C15.2014 18.4942 15.7436 18.8194 16.3451 18.8194C16.9466 18.8194 17.4882 18.4941 17.8038 17.9781ZM14.582 14.43C14.9806 14.43 15.3036 14.7531 15.3036 15.1516V15.2002C15.3036 15.5987 14.9805 15.9218 14.582 15.9218H14.5228C14.1244 15.9218 13.8013 15.5987 13.8013 15.2002V15.1516C13.8013 14.7531 14.1243 14.43 14.5228 14.43H14.582ZM18.1667 14.43C18.5651 14.4301 18.8883 14.7532 18.8883 15.1516V15.2002C18.8883 15.5986 18.5651 15.9217 18.1667 15.9218H18.1132C17.7148 15.9216 17.3916 15.5986 17.3916 15.2002V15.1516C17.3916 14.7532 17.7148 14.4302 18.1132 14.43H18.1667ZM22.058 13.6224V12.199H20.6542C20.2557 12.199 19.9326 11.8759 19.9326 11.4774C19.9327 11.079 20.2558 10.7558 20.6542 10.7558H22.058V9.31335C22.058 8.91485 22.381 8.5918 22.7795 8.59177C23.1781 8.59177 23.5011 8.91483 23.5011 9.31335V10.7558H24.8682C25.2667 10.7558 25.5897 11.079 25.5898 11.4774C25.5898 11.8759 25.2667 12.199 24.8682 12.199H23.5011V13.6224C23.5011 14.021 23.1781 14.344 22.7795 14.344C22.381 14.344 22.058 14.021 22.058 13.6224ZM22.6943 17.1966C22.6943 20.8062 19.7959 23.745 16.2049 23.7451C12.6138 23.7451 9.71484 20.8063 9.71484 17.1966C9.71488 13.5869 12.6138 10.648 16.2049 10.648C16.9844 10.648 17.7333 10.7873 18.4275 11.0426C18.842 11.1951 19.0764 11.5634 19.13 11.9214C19.3446 13.3553 20.385 14.5132 21.738 14.8888C22.0928 14.9872 22.4239 15.2704 22.523 15.6963C22.6351 16.1787 22.6943 16.6813 22.6943 17.1966Z" fill="#EADCFF"/>
</svg>
