<svg width="54" height="54" viewBox="0 0 54 54" fill="none" xmlns="http://www.w3.org/2000/svg">
<path fill-rule="evenodd" clip-rule="evenodd" d="M23.6691 5.68057C18.8549 5.68057 14.2378 7.59302 10.8336 10.9972C7.42943 14.4014 5.51698 19.0184 5.51698 23.8327C5.51698 28.6469 7.42943 33.264 10.8336 36.6682C14.2378 40.0724 18.8549 41.9848 23.6691 41.9848C28.4833 41.9848 33.1004 40.0724 36.5046 36.6682C39.9088 33.264 41.8212 28.6469 41.8212 23.8327C41.8212 19.0184 39.9088 14.4014 36.5046 10.9972C33.1004 7.59302 28.4833 5.68057 23.6691 5.68057ZM0.566406 23.8327C0.566718 20.1385 1.45293 16.4982 3.1507 13.2172C4.84848 9.93622 7.3083 7.11022 10.3238 4.97625C13.3394 2.84229 16.8227 1.46259 20.4816 0.952888C24.1405 0.44319 27.8682 0.818356 31.3522 2.04692C34.8361 3.27548 37.9747 5.3216 40.5045 8.01366C43.0344 10.7057 44.8817 13.9652 45.8917 17.5187C46.9016 21.0722 47.0447 24.816 46.3089 28.4362C45.5731 32.0564 43.9798 35.4474 41.6628 38.3247L52.6465 49.3117C52.8897 49.5383 53.0847 49.8115 53.22 50.1152C53.3553 50.4188 53.4281 50.7466 53.4339 51.0789C53.4398 51.4113 53.3787 51.7414 53.2542 52.0497C53.1297 52.3579 52.9444 52.6379 52.7093 52.8729C52.4743 53.108 52.1943 53.2933 51.8861 53.4178C51.5779 53.5422 51.2477 53.6034 50.9154 53.5975C50.583 53.5917 50.2552 53.5189 49.9516 53.3836C49.648 53.2483 49.3747 53.0533 49.1481 52.8101L38.1611 41.8264C34.7668 44.5604 30.6684 46.2784 26.3391 46.7822C22.0099 47.2859 17.6265 46.5547 13.6952 44.6731C9.76383 42.7914 6.44495 39.8361 4.12183 36.1484C1.7987 32.4607 0.56611 28.1911 0.566406 23.8327Z" fill="#EADCFF"/>
<path fill-rule="evenodd" clip-rule="evenodd" d="M15.131 17.8451C16.0311 16.9452 17.2518 16.4397 18.5246 16.4397C19.7973 16.4397 21.018 16.9452 21.9182 17.8451L23.3246 19.2503L24.731 17.8451C25.1737 17.3866 25.7034 17.021 26.289 16.7694C26.8746 16.5178 27.5045 16.3854 28.1418 16.3799C28.7792 16.3743 29.4112 16.4958 30.0011 16.7371C30.591 16.9785 31.127 17.3349 31.5777 17.7856C32.0283 18.2363 32.3848 18.7722 32.6261 19.3621C32.8674 19.952 32.9889 20.5841 32.9834 21.2214C32.9778 21.8587 32.8454 22.4886 32.5938 23.0742C32.3423 23.6598 31.9766 24.1895 31.5182 24.6323L23.3246 32.8271L15.131 24.6323C14.2311 23.7321 13.7256 22.5115 13.7256 21.2387C13.7256 19.9659 14.2311 18.7452 15.131 17.8451V17.8451Z" stroke="#EADCFF" stroke-width="2" stroke-linejoin="round"/>
</svg>
