<svg width="54" height="54" viewBox="0 0 54 54" fill="none" xmlns="http://www.w3.org/2000/svg">
<path fill-rule="evenodd" clip-rule="evenodd" d="M23.6691 5.8146C18.8549 5.8146 14.2378 7.72705 10.8336 11.1312C7.42943 14.5354 5.51698 19.1525 5.51698 23.9667C5.51698 28.781 7.42943 33.398 10.8336 36.8022C14.2378 40.2064 18.8549 42.1188 23.6691 42.1188C28.4833 42.1188 33.1004 40.2064 36.5046 36.8022C39.9088 33.398 41.8212 28.781 41.8212 23.9667C41.8212 19.1525 39.9088 14.5354 36.5046 11.1312C33.1004 7.72705 28.4833 5.8146 23.6691 5.8146ZM0.566406 23.9667C0.566718 20.2725 1.45293 16.6322 3.1507 13.3512C4.84848 10.0703 7.30831 7.24425 10.3238 5.11029C13.3394 2.97632 16.8227 1.59662 20.4816 1.08692C24.1405 0.577223 27.8682 0.952389 31.3522 2.18095C34.8361 3.40951 37.9747 5.45564 40.5045 8.14769C43.0344 10.8398 44.8817 14.0992 45.8917 17.6527C46.9016 21.2062 47.0447 24.9501 46.3089 28.5703C45.5731 32.1905 43.9798 35.5814 41.6628 38.4587L52.6465 49.4457C52.8897 49.6723 53.0847 49.9456 53.22 50.2492C53.3553 50.5528 53.4281 50.8806 53.4339 51.213C53.4398 51.5453 53.3787 51.8755 53.2542 52.1837C53.1297 52.4919 52.9444 52.7719 52.7093 53.0069C52.4743 53.242 52.1943 53.4273 51.8861 53.5518C51.5779 53.6763 51.2477 53.7374 50.9154 53.7315C50.583 53.7257 50.2552 53.6529 49.9516 53.5177C49.648 53.3824 49.3747 53.1873 49.1481 52.9441L38.1611 41.9604C34.7668 44.6944 30.6684 46.4125 26.3391 46.9162C22.0099 47.4199 17.6265 46.6887 13.6952 44.8071C9.76383 42.9255 6.44495 39.9701 4.12183 36.2824C1.7987 32.5948 0.56611 28.3252 0.566406 23.9667Z" fill="#EADCFF"/>
<path d="M11.8928 26.7728C11.8195 26.7728 11.7828 26.7362 11.7828 26.6628V19.5328C11.7828 19.4662 11.8195 19.4328 11.8928 19.4328H12.5628C12.6228 19.4328 12.6628 19.4562 12.6828 19.5028L15.5628 24.3628L18.4228 19.5028C18.4495 19.4562 18.4895 19.4328 18.5428 19.4328H19.1928C19.2661 19.4328 19.3028 19.4662 19.3028 19.5328V26.6628C19.3028 26.7362 19.2661 26.7728 19.1928 26.7728H18.5928C18.5261 26.7728 18.4928 26.7362 18.4928 26.6628V20.8628L15.8728 25.3028C15.8528 25.3495 15.8128 25.3728 15.7528 25.3728H15.3328C15.2795 25.3728 15.2395 25.3495 15.2128 25.3028L12.5928 20.8728V26.6628C12.5928 26.7362 12.5595 26.7728 12.4928 26.7728H11.8928ZM21.2092 26.7728C21.1359 26.7728 21.0992 26.7362 21.0992 26.6628V19.5328C21.0992 19.4662 21.1359 19.4328 21.2092 19.4328H23.5992C24.3992 19.4328 25.0026 19.6062 25.4092 19.9528C25.8159 20.2928 26.0192 20.7395 26.0192 21.2928C26.0192 21.6862 25.9259 22.0262 25.7392 22.3128C25.5526 22.5928 25.2792 22.7995 24.9192 22.9328C25.3992 23.0528 25.7592 23.2662 25.9992 23.5728C26.2459 23.8728 26.3692 24.2562 26.3692 24.7228C26.3692 25.3562 26.1526 25.8562 25.7192 26.2228C25.2859 26.5895 24.6226 26.7728 23.7292 26.7728H21.2092ZM23.6092 22.5928C24.1359 22.5928 24.5259 22.4895 24.7792 22.2828C25.0392 22.0762 25.1692 21.7828 25.1692 21.4028C25.1692 21.0295 25.0326 20.7395 24.7592 20.5328C24.4859 20.3195 24.0826 20.2128 23.5492 20.2128H21.9392V22.5928H23.6092ZM23.7292 25.9828C24.3226 25.9828 24.7659 25.8695 25.0592 25.6428C25.3592 25.4162 25.5092 25.0895 25.5092 24.6628C25.5092 24.2428 25.3592 23.9228 25.0592 23.7028C24.7659 23.4762 24.3226 23.3628 23.7292 23.3628H21.9392V25.9828H23.7292ZM29.5555 26.7728C29.4821 26.7728 29.4455 26.7362 29.4455 26.6628V20.2228H27.0355C26.9688 20.2228 26.9355 20.1862 26.9355 20.1128V19.5328C26.9355 19.4662 26.9688 19.4328 27.0355 19.4328H32.6955C32.7621 19.4328 32.7955 19.4662 32.7955 19.5328V20.1128C32.7955 20.1862 32.7621 20.2228 32.6955 20.2228H30.2855V26.6628C30.2855 26.7362 30.2488 26.7728 30.1755 26.7728H29.5555ZM34.1389 26.7728C34.0656 26.7728 34.0289 26.7362 34.0289 26.6628V19.5328C34.0289 19.4662 34.0656 19.4328 34.1389 19.4328H34.7589C34.8322 19.4328 34.8689 19.4662 34.8689 19.5328V26.6628C34.8689 26.7362 34.8322 26.7728 34.7589 26.7728H34.1389Z" fill="#EADCFF"/>
</svg>
