<svg width="54" height="54" viewBox="0 0 54 54" fill="none" xmlns="http://www.w3.org/2000/svg">
<path d="M33.6754 27.3474C32.98 27.3474 32.3839 27.1029 31.8871 26.6138C31.3904 26.1247 31.1459 25.5286 31.1535 24.8255C31.1459 24.1377 31.3904 23.5493 31.8871 23.0602C32.3839 22.5711 32.98 22.3265 33.6754 22.3265C34.3479 22.3265 34.9325 22.5711 35.4293 23.0602C35.9337 23.5493 36.1897 24.1377 36.1973 24.8255C36.1897 25.2917 36.0674 25.7158 35.8305 26.098C35.6012 26.4801 35.2955 26.7857 34.9134 27.015C34.539 27.2366 34.1263 27.3474 33.6754 27.3474Z" fill="#EADCFF"/>
<path d="M24.3131 27.3474C23.6177 27.3474 23.0216 27.1029 22.5248 26.6138C22.0281 26.1247 21.7835 25.5286 21.7912 24.8255C21.7835 24.1377 22.0281 23.5493 22.5248 23.0602C23.0216 22.5711 23.6177 22.3265 24.3131 22.3265C24.9856 22.3265 25.5702 22.5711 26.067 23.0602C26.5714 23.5493 26.8274 24.1377 26.835 24.8255C26.8274 25.2917 26.7051 25.7158 26.4682 26.098C26.2389 26.4801 25.9332 26.7857 25.5511 27.015C25.1767 27.2366 24.764 27.3474 24.3131 27.3474Z" fill="#EADCFF"/>
<path d="M14.9508 27.3474C14.2554 27.3474 13.6593 27.1029 13.1625 26.6138C12.6658 26.1247 12.4212 25.5286 12.4289 24.8255C12.4212 24.1377 12.6658 23.5493 13.1625 23.0602C13.6593 22.5711 14.2554 22.3265 14.9508 22.3265C15.6233 22.3265 16.2079 22.5711 16.7047 23.0602C17.2091 23.5493 17.4651 24.1377 17.4727 24.8255C17.4651 25.2917 17.3428 25.7158 17.1059 26.098C16.8766 26.4801 16.5709 26.7857 16.1888 27.015C15.8144 27.2366 15.4017 27.3474 14.9508 27.3474Z" fill="#EADCFF"/>
<path fill-rule="evenodd" clip-rule="evenodd" d="M23.6603 5.42505C18.8338 5.42505 14.2051 7.34235 10.7923 10.7552C7.37945 14.168 5.46215 18.7967 5.46215 23.6232C5.46215 28.4496 7.37945 33.0784 10.7923 36.4912C14.2051 39.904 18.8338 41.8213 23.6603 41.8213C28.4867 41.8213 33.1155 39.904 36.5283 36.4912C39.9411 33.0784 41.8584 28.4496 41.8584 23.6232C41.8584 18.7967 39.9411 14.168 36.5283 10.7552C33.1155 7.34235 28.4867 5.42505 23.6603 5.42505ZM0.499023 23.6232C0.499336 19.9196 1.3878 16.2701 3.08987 12.9808C4.79195 9.69149 7.25801 6.85832 10.2812 4.71895C13.3044 2.57957 16.7965 1.19637 20.4647 0.685382C24.1329 0.174391 27.8701 0.550508 31.3629 1.78218C34.8556 3.01386 38.0021 5.06517 40.5384 7.76406C43.0746 10.4629 44.9267 13.7307 45.9392 17.2932C46.9517 20.8557 47.0952 24.609 46.3575 28.2384C45.6198 31.8678 44.0225 35.2674 41.6996 38.1519L52.7111 49.1668C52.955 49.3939 53.1505 49.6679 53.2861 49.9723C53.4218 50.2767 53.4947 50.6053 53.5006 50.9385C53.5065 51.2717 53.4452 51.6027 53.3204 51.9117C53.1955 52.2207 53.0098 52.5014 52.7741 52.737C52.5385 52.9727 52.2578 53.1584 51.9488 53.2833C51.6398 53.4081 51.3088 53.4694 50.9756 53.4635C50.6424 53.4576 50.3138 53.3847 50.0094 53.249C49.705 53.1134 49.431 52.9179 49.2039 52.674L38.189 41.6625C34.7861 44.4034 30.6773 46.1258 26.3371 46.6308C21.9969 47.1358 17.6024 46.4028 13.6611 44.5164C9.71977 42.63 6.39247 39.6672 4.06346 35.9701C1.73444 32.2731 0.498727 27.9927 0.499023 23.6232Z" fill="#EADCFF"/>
</svg>
