<svg width="54" height="53" viewBox="0 0 54 53" fill="none" xmlns="http://www.w3.org/2000/svg">
<path fill-rule="evenodd" clip-rule="evenodd" d="M23.6691 4.9486C18.8549 4.9486 14.2378 6.86105 10.8336 10.2652C7.42943 13.6694 5.51698 18.2865 5.51698 23.1007C5.51698 27.915 7.42943 32.532 10.8336 35.9362C14.2378 39.3404 18.8549 41.2528 23.6691 41.2528C28.4833 41.2528 33.1004 39.3404 36.5046 35.9362C39.9088 32.532 41.8212 27.915 41.8212 23.1007C41.8212 18.2865 39.9088 13.6694 36.5046 10.2652C33.1004 6.86105 28.4833 4.9486 23.6691 4.9486ZM0.566406 23.1007C0.566718 19.4065 1.45293 15.7662 3.1507 12.4852C4.84848 9.20426 7.3083 6.37825 10.3238 4.24429C13.3394 2.11032 16.8227 0.730623 20.4816 0.220924C24.1405 -0.288774 27.8682 0.0863915 31.3522 1.31495C34.8361 2.54351 37.9747 4.58964 40.5045 7.2817C43.0344 9.97375 44.8817 13.2332 45.8917 16.7867C46.9016 20.3402 47.0447 24.0841 46.3089 27.7043C45.5731 31.3245 43.9798 34.7154 41.6628 37.5927L52.6465 48.5797C52.8897 48.8063 53.0847 49.0796 53.22 49.3832C53.3553 49.6869 53.4281 50.0146 53.4339 50.347C53.4398 50.6793 53.3787 51.0095 53.2542 51.3177C53.1297 51.6259 52.9444 51.9059 52.7093 52.1409C52.4743 52.376 52.1943 52.5613 51.8861 52.6858C51.5779 52.8103 51.2477 52.8714 50.9154 52.8656C50.583 52.8597 50.2552 52.7869 49.9516 52.6517C49.648 52.5164 49.3747 52.3213 49.1481 52.0781L38.1611 41.0944C34.7668 43.8284 30.6684 45.5465 26.3391 46.0502C22.0099 46.5539 17.6265 45.8227 13.6952 43.9411C9.76383 42.0595 6.44495 39.1041 4.12183 35.4165C1.7987 31.7288 0.56611 27.4592 0.566406 23.1007Z" fill="#EADCFF"/>
<path d="M22.9696 27.9049C22.8763 27.9049 22.8296 27.8535 22.8296 27.7509L22.7876 24.6149C22.7876 24.5122 22.839 24.4609 22.9416 24.4609H23.5016C24.239 24.4609 24.799 24.2649 25.1816 23.8729C25.5643 23.4809 25.7556 22.9442 25.7556 22.2629C25.7556 21.6749 25.583 21.2082 25.2376 20.8629C24.8923 20.5175 24.4163 20.3449 23.8096 20.3449C22.7643 20.3449 22.041 20.8769 21.6396 21.9409C21.593 22.0342 21.5276 22.0669 21.4436 22.0389L20.6176 21.8149C20.5243 21.7869 20.4916 21.7262 20.5196 21.6329C20.781 20.8582 21.201 20.2609 21.7796 19.8409C22.3676 19.4115 23.0676 19.1969 23.8796 19.1969C24.4863 19.1969 25.023 19.3229 25.4896 19.5749C25.9563 19.8175 26.3203 20.1629 26.5816 20.6109C26.843 21.0589 26.9736 21.5769 26.9736 22.1649C26.9736 22.7715 26.8523 23.3175 26.6096 23.8029C26.367 24.2882 26.0123 24.6755 25.5456 24.9649C25.0883 25.2542 24.5423 25.4175 23.9076 25.4549L23.8796 27.7509C23.8796 27.8535 23.833 27.9049 23.7396 27.9049H22.9696ZM23.3476 30.3129C23.1236 30.3129 22.9323 30.2382 22.7736 30.0889C22.6243 29.9395 22.5496 29.7529 22.5496 29.5289C22.5496 29.3049 22.6243 29.1229 22.7736 28.9829C22.9323 28.8335 23.1236 28.7589 23.3476 28.7589C23.581 28.7589 23.7723 28.8335 23.9216 28.9829C24.0803 29.1229 24.1596 29.3049 24.1596 29.5289C24.1596 29.7622 24.0803 29.9489 23.9216 30.0889C23.7723 30.2382 23.581 30.3129 23.3476 30.3129Z" fill="#EADCFF"/>
<path fill-rule="evenodd" clip-rule="evenodd" d="M12.8992 15.1821C14.0994 13.9822 15.727 13.3082 17.424 13.3082C19.1211 13.3082 20.7486 13.9822 21.9488 15.1821L23.824 17.0557L25.6992 15.1821C26.2896 14.5708 26.9958 14.0832 27.7766 13.7478C28.5575 13.4124 29.3973 13.2358 30.2471 13.2285C31.0968 13.2211 31.9396 13.383 32.7261 13.7048C33.5127 14.0266 34.2272 14.5018 34.8281 15.1027C35.4291 15.7036 35.9043 16.4182 36.2261 17.2047C36.5479 17.9913 36.7098 18.834 36.7024 19.6838C36.695 20.5336 36.5185 21.3734 36.1831 22.1542C35.8476 22.9351 35.3601 23.6413 34.7488 24.2317L23.824 35.1581L12.8992 24.2317C11.6994 23.0315 11.0254 21.4039 11.0254 19.7069C11.0254 18.0098 11.6994 16.3822 12.8992 15.1821V15.1821Z" stroke="#EADCFF" stroke-width="2" stroke-linejoin="round"/>
</svg>
