<svg width="54" height="54" viewBox="0 0 54 54" fill="none" xmlns="http://www.w3.org/2000/svg">
<path fill-rule="evenodd" clip-rule="evenodd" d="M23.6691 5.54653C18.8549 5.54653 14.2378 7.45899 10.8336 10.8632C7.42943 14.2674 5.51698 18.8844 5.51698 23.6987C5.51698 28.5129 7.42943 33.13 10.8336 36.5341C14.2378 39.9383 18.8549 41.8508 23.6691 41.8508C28.4833 41.8508 33.1004 39.9383 36.5046 36.5341C39.9088 33.13 41.8212 28.5129 41.8212 23.6987C41.8212 18.8844 39.9088 14.2674 36.5046 10.8632C33.1004 7.45899 28.4833 5.54653 23.6691 5.54653ZM0.566406 23.6987C0.566718 20.0044 1.45293 16.3642 3.1507 13.0832C4.84848 9.80219 7.3083 6.97619 10.3238 4.84222C13.3394 2.70825 16.8227 1.32855 20.4816 0.818855C24.1405 0.309156 27.8682 0.684322 31.3522 1.91288C34.8361 3.14144 37.9747 5.18757 40.5045 7.87963C43.0344 10.5717 44.8817 13.8312 45.8917 17.3847C46.9016 20.9381 47.0447 24.682 46.3089 28.3022C45.5731 31.9224 43.9798 35.3134 41.6628 38.1906L52.6465 49.1776C52.8897 49.4042 53.0847 49.6775 53.22 49.9811C53.3553 50.2848 53.4281 50.6126 53.4339 50.9449C53.4398 51.2773 53.3787 51.6074 53.2542 51.9156C53.1297 52.2238 52.9444 52.5038 52.7093 52.7389C52.4743 52.9739 52.1943 53.1592 51.8861 53.2837C51.5779 53.4082 51.2477 53.4693 50.9154 53.4635C50.583 53.4576 50.2552 53.3849 49.9516 53.2496C49.648 53.1143 49.3747 52.9192 49.1481 52.676L38.1611 41.6924C34.7668 44.4263 30.6684 46.1444 26.3391 46.6481C22.0099 47.1518 17.6265 46.4206 13.6952 44.539C9.76383 42.6574 6.44495 39.7021 4.12183 36.0144C1.7987 32.3267 0.56611 28.0571 0.566406 23.6987Z" fill="#EADCFF"/>
<path d="M17.6554 31.5046L19.1179 25.2191L14.2129 20.9915L20.6929 20.4323L23.2129 14.5046L25.7329 20.4323L32.2129 20.9915L27.3079 25.2191L28.7704 31.5046L23.2129 28.1717L17.6554 31.5046Z" fill="#EADCFF"/>
</svg>
