<svg viewBox="0 0 17 18" fill="none" xmlns="http://www.w3.org/2000/svg">
<path d="M8.5 7.33333C8.88302 7.33333 9.26229 7.25789 9.61616 7.11132C9.97003 6.96474 10.2916 6.7499 10.5624 6.47906C10.8332 6.20822 11.0481 5.88669 11.1946 5.53283C11.3412 5.17896 11.4167 4.79969 11.4167 4.41667C11.4167 4.03364 11.3412 3.65437 11.1946 3.30051C11.0481 2.94664 10.8332 2.62511 10.5624 2.35427C10.2916 2.08343 9.97003 1.86859 9.61616 1.72202C9.26229 1.57544 8.88302 1.5 8.5 1.5C7.72645 1.5 6.98459 1.80729 6.43761 2.35427C5.89062 2.90125 5.58333 3.64312 5.58333 4.41667C5.58333 5.19021 5.89062 5.93208 6.43761 6.47906C6.98459 7.02604 7.72645 7.33333 8.5 7.33333ZM1 16V16.5H16V16C16 14.1333 16 13.2 15.6367 12.4867C15.3171 11.8595 14.8072 11.3496 14.18 11.03C13.4667 10.6667 12.5333 10.6667 10.6667 10.6667H6.33333C4.46667 10.6667 3.53333 10.6667 2.82 11.03C2.19282 11.3496 1.68291 11.8595 1.36333 12.4867C1 13.2 1 14.1333 1 16Z" fill="currentColor" stroke="currentColor" stroke-width="2" stroke-linecap="round" stroke-linejoin="round"/>
</svg>
