<svg width="11" height="10" viewBox="0 0 11 10" fill="currentColor" xmlns="http://www.w3.org/2000/svg">
<path fill-rule="evenodd" clip-rule="evenodd" d="M8.12589 4.35746C8.12589 4.78668 8.04135 5.21169 7.87709 5.60823C7.71284 6.00478 7.47209 6.36509 7.16859 6.66859C6.86509 6.97209 6.50478 7.21284 6.10823 7.37709C5.71169 7.54135 5.28668 7.62589 4.85746 7.62589C4.42825 7.62589 4.00324 7.54135 3.60669 7.37709C3.21015 7.21284 2.84984 6.97209 2.54634 6.66859C2.24284 6.36509 2.00209 6.00478 1.83784 5.60823C1.67358 5.21169 1.58904 4.78668 1.58904 4.35746C1.58904 3.49063 1.93339 2.65929 2.54634 2.04634C3.15929 1.43339 3.99063 1.08904 4.85746 1.08904C5.7243 1.08904 6.55564 1.43339 7.16859 2.04634C7.78153 2.65929 8.12589 3.49063 8.12589 4.35746ZM7.53031 7.8002C6.65464 8.48002 5.55282 8.80056 4.44913 8.69658C3.34544 8.59259 2.32287 8.0719 1.58959 7.2405C0.856304 6.4091 0.467432 5.32949 0.502138 4.22146C0.536845 3.11343 0.99252 2.06028 1.7764 1.2764C2.56028 0.49252 3.61343 0.0368446 4.72146 0.00213825C5.82949 -0.0325681 6.9091 0.356304 7.7405 1.08959C8.5719 1.82287 9.09259 2.84544 9.19658 3.94913C9.30056 5.05282 8.98002 6.15464 8.3002 7.03031L10.3266 9.05673C10.3801 9.1066 10.4231 9.16674 10.4528 9.23356C10.4826 9.30038 10.4986 9.37251 10.4999 9.44565C10.5012 9.5188 10.4878 9.59145 10.4604 9.65928C10.433 9.72711 10.3922 9.78872 10.3404 9.84045C10.2887 9.89218 10.2271 9.93296 10.1593 9.96035C10.0914 9.98775 10.0188 10.0012 9.94565 9.99992C9.87251 9.99862 9.80038 9.98261 9.73356 9.95284C9.66674 9.92307 9.6066 9.88014 9.55673 9.82662L7.53031 7.8002Z" fill="currentColor"/>
</svg>
